<?xml version="1.0" encoding="UTF-8"?>
<svg xmlns="http://www.w3.org/2000/svg" xmlns:xlink="http://www.w3.org/1999/xlink" width="16px" height="16px" viewBox="0 0 16 16" version="1.1">
<g id="surface1">
<path style=" stroke:none;fill-rule:nonzero;fill:rgb(0%,0%,0%);fill-opacity:1;" d="M 4.503906 6.5 C 3.949219 6.5 3.503906 6.945312 3.503906 7.5 C 3.503906 8.054688 3.949219 8.5 4.503906 8.5 C 5.054688 8.5 5.503906 8.054688 5.503906 7.5 C 5.503906 6.945312 5.054688 6.5 4.503906 6.5 Z M 8.003906 6.5 C 7.449219 6.5 7.003906 6.945312 7.003906 7.5 C 7.003906 8.054688 7.449219 8.5 8.003906 8.5 C 8.554688 8.5 9.003906 8.054688 9.003906 7.5 C 9.003906 6.945312 8.554688 6.5 8.003906 6.5 Z M 11.503906 6.5 C 10.949219 6.5 10.503906 6.945312 10.503906 7.5 C 10.503906 8.054688 10.949219 8.5 11.503906 8.5 C 12.054688 8.5 12.503906 8.054688 12.503906 7.5 C 12.503906 6.945312 12.054688 6.5 11.503906 6.5 Z M 8.003906 1 C 3.582031 1 0.00390625 3.910156 0.00390625 7.5 C 0.00390625 8.988281 0.625 10.351562 1.65625 11.445312 C 1.191406 12.679688 0.222656 13.722656 0.207031 13.734375 C 0 13.953125 -0.0585938 14.273438 0.0625 14.546875 C 0.179688 14.820312 0.453125 15 0.753906 15 C 2.675781 15 4.191406 14.195312 5.097656 13.554688 C 6.003906 13.835938 6.976562 14 8.003906 14 C 12.421875 14 16.003906 11.089844 16.003906 7.5 C 16.003906 3.910156 12.421875 1 8.003906 1 Z M 8.003906 12.5 C 7.167969 12.5 6.34375 12.371094 5.550781 12.121094 L 4.84375 11.898438 L 4.234375 12.328125 C 3.785156 12.644531 3.175781 12.996094 2.4375 13.234375 C 2.664062 12.855469 2.886719 12.429688 3.058594 11.976562 L 3.390625 11.101562 L 2.746094 10.417969 C 2.179688 9.816406 1.503906 8.820312 1.503906 7.5 C 1.503906 4.742188 4.417969 2.5 8.003906 2.5 C 11.585938 2.5 14.503906 4.742188 14.503906 7.5 C 14.503906 10.257812 11.585938 12.5 8.003906 12.5 Z M 8.003906 12.5 "/>
</g>
</svg>
