<svg width="12" height="12" viewBox="0 0 12 12" fill="none" xmlns="http://www.w3.org/2000/svg">
<g clip-path="url(#clip0_1407_14761)">
<path d="M9.5455 9.50012H5.0485C4.4 9.50012 3.825 9.07462 3.6495 8.46512L2.1295 3.31462C2.0755 3.12812 1.896 3.00012 1.691 3.00012H0.5C0.2235 3.00012 0 2.77612 0 2.50012C0 2.22412 0.2235 2.00012 0.5 2.00012H1.691C2.3395 2.00012 2.914 2.42562 3.0895 3.03512L3.374 4.00012H11.0215C11.3335 4.00012 11.6295 4.14862 11.813 4.39762C11.995 4.64462 12.0475 4.95362 11.957 5.24562L10.9255 8.51962C10.7235 9.11062 10.17 9.50012 9.5455 9.50012ZM11.022 5.00012H11.027H11.022Z" fill="#B45309"/>
<path d="M5.5 12C4.9485 12 4.5 11.5515 4.5 11C4.5 10.4485 4.9485 10 5.5 10C6.0515 10 6.5 10.4485 6.5 11C6.5 11.5515 6.0515 12 5.5 12ZM5.5 10.9995V11V10.9995Z" fill="#B45309"/>
<path d="M9 12C8.4485 12 8 11.5515 8 11C8 10.4485 8.4485 10 9 10C9.5515 10 10 10.4485 10 11C10 11.5515 9.5515 12 9 12ZM9 10.9995V11V10.9995Z" fill="#B45309"/>
</g>
<defs>
<clipPath id="clip0_1407_14761">
<rect width="12" height="12" fill="white"/>
</clipPath>
</defs>
</svg>