<svg width="19" height="19" viewBox="0 0 19 19" fill="none" xmlns="http://www.w3.org/2000/svg">
<path d="M9.58301 0.833374C4.75081 0.833374 0.833008 4.75118 0.833008 9.58337C0.833008 14.4156 4.75081 18.3334 9.58301 18.3334C14.4158 18.3334 18.333 14.4156 18.333 9.58337C18.333 4.75118 14.4158 0.833374 9.58301 0.833374ZM13.3499 13.5638C13.2217 13.7803 12.9483 13.8687 12.7142 13.7655C12.6663 13.744 12.6229 13.7169 12.5781 13.6913C11.7092 13.1751 10.773 12.8561 9.77676 12.7043C9.16537 12.6109 8.55091 12.5783 7.93315 12.6023C7.13493 12.6338 6.347 12.7434 5.56694 12.9178C5.48798 12.9342 5.40702 12.9504 5.32695 12.9512C5.085 12.9541 4.88159 12.7825 4.83891 12.5496C4.79405 12.3046 4.91633 12.0738 5.14166 11.9835C5.18976 11.9633 5.24052 11.9515 5.29021 11.9408C5.9283 11.7969 6.57229 11.6888 7.22418 11.6339C7.5882 11.6025 7.95328 11.5906 8.31793 11.5699C9.39639 11.5812 10.4521 11.7273 11.476 12.0741C12.0415 12.2635 12.5811 12.5105 13.0932 12.8161C13.1381 12.8417 13.1829 12.8673 13.2236 12.8988C13.4297 13.0562 13.4838 13.341 13.3499 13.5638ZM14.3546 11.3308C14.173 11.6298 13.797 11.7223 13.4838 11.5449C13.3064 11.4467 13.132 11.3412 12.9511 11.2494C12.1229 10.827 11.2449 10.5535 10.3333 10.3814C9.63201 10.249 8.92304 10.1834 8.17079 10.1806C7.23303 10.1849 6.27356 10.3009 5.33537 10.5778C5.18336 10.6233 5.02997 10.6277 4.87971 10.5656C4.63622 10.468 4.47763 10.2232 4.48596 9.96533C4.49515 9.69561 4.65964 9.4611 4.91932 9.38214C5.18421 9.30011 5.45239 9.23055 5.72169 9.17147C6.38648 9.02338 7.05978 8.94571 7.73965 8.92012C9.20331 8.86458 10.6339 9.05333 12.0283 9.50113C12.7339 9.7262 13.4095 10.0224 14.0462 10.4019C14.0777 10.4212 14.1097 10.4398 14.1412 10.459C14.4734 10.6629 14.5134 11.0717 14.3546 11.3308ZM14.4522 9.01005C14.0976 8.80989 13.736 8.62835 13.3584 8.47741C12.6086 8.17684 11.8318 7.97539 11.0373 7.83495C10.4847 7.73737 9.92865 7.67264 9.36819 7.63919C8.78611 7.6042 8.20399 7.60006 7.62037 7.63C6.95254 7.665 6.28992 7.73827 5.63585 7.87939C5.3948 7.93121 5.15635 7.99752 4.91748 8.06161C4.77068 8.10079 4.627 8.10579 4.48083 8.06225C4.1619 7.96971 3.94229 7.68273 3.93264 7.34871C3.92302 7.02255 4.12383 6.7207 4.43926 6.61679C4.66959 6.54134 4.90671 6.48071 5.14431 6.42671C5.73079 6.29063 6.32534 6.20663 6.92494 6.15263C7.56149 6.09423 8.19958 6.07564 8.83789 6.09359C10.4103 6.13845 11.9518 6.3692 13.4443 6.88395C14.0525 7.09394 14.6378 7.35447 15.1948 7.67931C15.3934 7.79548 15.5266 7.95843 15.5771 8.18354C15.5892 8.2378 15.592 8.29403 15.5992 8.34803C15.5965 8.94178 14.9734 9.30558 14.4522 9.01005Z" fill="#606266"/>
</svg>