<svg width="18" height="13" viewBox="0 0 18 13" fill="none" xmlns="http://www.w3.org/2000/svg">
<path d="M16.9903 2.28933C16.7982 1.52449 16.2353 0.921576 15.5214 0.715629C14.2171 0.333374 9.00014 0.333374 9.00014 0.333374C9.00014 0.333374 3.78335 0.333374 2.47913 0.701136C1.77895 0.906865 1.20227 1.5246 1.01021 2.28933C0.666992 3.68628 0.666992 6.58337 0.666992 6.58337C0.666992 6.58337 0.666992 9.49507 1.01021 10.8774C1.20248 11.6422 1.76522 12.2451 2.47923 12.451C3.79708 12.8334 9.00034 12.8334 9.00034 12.8334C9.00034 12.8334 14.2171 12.8334 15.5214 12.4656C16.2354 12.2598 16.7982 11.6569 16.9905 10.8921C17.3336 9.49507 17.3336 6.59808 17.3336 6.59808C17.3336 6.59808 17.3473 3.68628 16.9903 2.28933V2.28933ZM7.33917 9.25981V3.90694L11.6773 6.58337L7.33917 9.25981Z" fill="#606266"/>
</svg>